<?xml version="1.0" encoding="UTF-8"?> <svg xmlns="http://www.w3.org/2000/svg" width="691" height="409" viewBox="0 0 691 409" fill="none"><g clip-path="url(#clip0_192_300)"><path d="M319.817 229.289L242.045 97.3459L418.825 196.594L319.817 229.289Z" fill="#F47958"></path><path d="M458.422 219.646C453.763 143.407 388.228 85.3916 312.06 90.0545C235.879 94.7173 177.906 160.302 182.565 236.526C187.225 312.764 252.76 370.78 328.928 366.117C405.109 361.454 463.082 295.87 458.422 219.646ZM443.103 220.573C438.955 152.816 380.706 101.234 313 105.385C245.294 109.536 193.751 167.829 197.899 235.585C202.046 303.342 260.295 354.924 328.001 350.773C395.707 346.622 447.251 288.329 443.103 220.573ZM427.77 221.514C424.148 162.225 373.171 117.091 313.927 120.716C254.682 124.341 209.582 175.342 213.204 234.644C216.826 293.933 267.803 339.067 327.047 335.442C386.292 331.817 431.392 280.816 427.77 221.514ZM412.451 222.455C409.34 171.634 365.663 132.947 314.881 136.06C264.098 139.174 225.44 182.883 228.551 233.717C231.662 284.538 275.338 323.225 326.121 320.111C376.904 316.998 415.562 273.289 412.451 222.455ZM397.118 223.395C394.532 181.042 358.128 148.817 315.807 151.405C273.485 153.992 241.285 190.423 243.87 232.776C246.455 275.129 282.859 307.354 325.181 304.767C367.502 302.18 399.703 265.748 397.118 223.395ZM381.798 224.336C379.725 190.451 350.607 164.674 316.747 166.736C282.887 168.811 257.129 197.95 259.189 231.836C261.263 265.721 290.381 291.498 324.241 289.436C358.101 287.361 383.859 258.221 381.798 224.336ZM366.479 225.263C364.931 199.86 343.086 180.517 317.687 182.066C292.289 183.616 272.974 205.477 274.522 230.895C276.071 256.298 297.916 275.641 323.314 274.092C348.699 272.542 368.028 250.681 366.479 225.263ZM351.146 226.204C350.109 209.268 335.55 196.373 318.614 197.411C301.677 198.448 288.805 213.018 289.842 229.968C290.879 246.903 305.437 259.799 322.36 258.761C339.283 257.723 352.169 243.154 351.132 226.204L351.146 226.204ZM335.827 227.145C335.302 218.677 328.029 212.229 319.568 212.741C311.106 213.267 304.663 220.545 305.175 229.013C305.7 237.481 312.972 243.929 321.434 243.417C329.896 242.891 336.338 235.613 335.827 227.145Z" stroke="white" stroke-width="1.1" stroke-miterlimit="8"></path><path d="M257.766 287.907C256.093 260.594 232.616 239.798 205.324 241.472C178.031 243.147 157.251 266.641 158.924 293.954C160.597 321.267 184.073 342.063 211.366 340.389C238.658 338.714 259.439 315.22 257.766 287.907ZM252.277 288.253C250.798 263.97 229.92 245.485 205.656 246.979C181.391 248.46 162.933 269.353 164.413 293.636C165.892 317.918 186.769 336.404 211.034 334.909C235.299 333.429 253.756 312.536 252.277 288.253ZM246.788 288.585C245.488 267.346 227.224 251.172 206.001 252.472C184.778 253.773 168.616 272.051 169.915 293.29C171.215 314.528 189.479 330.703 210.702 329.402C231.925 328.102 248.088 309.824 246.788 288.585ZM241.299 288.917C240.193 270.709 224.528 256.845 206.333 257.965C188.138 259.072 174.284 274.749 175.404 292.958C176.51 311.166 192.175 325.03 210.37 323.909C228.565 322.803 242.419 307.126 241.299 288.917ZM235.81 289.249C234.884 274.071 221.832 262.518 206.679 263.458C191.512 264.385 179.967 277.447 180.907 292.612C181.833 307.79 194.885 319.343 210.039 318.403C225.206 317.476 236.75 304.414 235.81 289.249ZM230.307 289.595C229.561 277.461 219.136 268.218 206.997 268.951C194.871 269.699 185.636 280.131 186.368 292.28C187.115 304.414 197.54 313.657 209.679 312.923C221.804 312.176 231.04 301.73 230.307 289.595ZM224.819 289.927C224.266 280.823 216.44 273.891 207.342 274.444C198.245 274.998 191.318 282.829 191.871 291.934C192.424 301.038 200.25 307.97 209.347 307.417C218.445 306.863 225.372 299.032 224.819 289.927ZM219.33 290.259C218.956 284.185 213.744 279.564 207.674 279.937C201.605 280.311 196.987 285.527 197.36 291.602C197.733 297.676 202.946 302.297 209.015 301.923C215.085 301.55 219.703 296.334 219.33 290.259ZM213.841 290.605C213.661 287.575 211.048 285.265 208.02 285.444C204.992 285.624 202.683 288.239 202.863 291.269C203.043 294.3 205.656 296.61 208.684 296.43C211.711 296.251 214.02 293.636 213.841 290.605Z" stroke="#DBD4C4" stroke-width="1.1" stroke-miterlimit="8"></path><path d="M380.189 56.5609C378.846 34.6381 360.003 17.9461 338.085 19.2899C316.168 20.6337 299.499 39.4913 300.842 61.4142C302.185 83.337 321.028 100.029 342.935 98.6852C364.841 97.3414 381.521 78.4838 380.178 56.5609L380.189 56.5609ZM375.772 56.8275C374.585 37.3368 357.828 22.4995 338.352 23.6989C318.876 24.8872 304.06 41.657 305.248 61.1476C306.435 80.6383 323.192 95.4646 342.669 94.2762C362.145 93.0879 376.96 76.3182 375.772 56.8275ZM371.367 57.094C370.324 40.0466 355.664 27.0639 338.629 28.1079C321.594 29.1518 308.621 43.8226 309.665 60.87C310.708 77.9174 325.368 90.9001 342.402 89.8561C359.437 88.8122 372.41 74.1414 371.367 57.094ZM366.961 57.3717C366.073 42.7564 353.5 31.6284 338.895 32.528C324.291 33.4165 313.171 45.9993 314.07 60.6146C314.958 75.2298 327.532 86.3578 342.136 85.4582C356.74 84.5698 367.86 71.9869 366.961 57.3717ZM362.555 57.6382C361.812 45.4551 351.336 36.1818 339.173 36.937C326.999 37.6811 317.733 48.165 318.487 60.3369C319.231 72.52 329.707 81.7933 341.87 81.0381C354.044 80.294 363.31 69.8102 362.555 57.6382ZM358.15 57.9047C357.55 48.165 349.183 40.7463 339.439 41.346C329.707 41.9457 322.294 50.3195 322.882 60.0704C323.481 69.8102 331.849 77.2288 341.592 76.6291C351.325 76.0294 358.738 67.6556 358.15 57.9047ZM353.733 58.1713C353.289 50.8637 347.008 45.2997 339.706 45.7439C332.403 46.1881 326.844 52.474 327.287 59.7816C327.731 67.0892 334.013 72.6532 341.315 72.209C348.617 71.7648 354.177 65.4789 353.733 58.1713ZM349.327 58.4489C349.027 53.5735 344.844 49.8641 339.972 50.164C335.1 50.4639 331.394 54.6507 331.693 59.5262C331.993 64.4016 336.177 68.111 341.048 67.8111C345.92 67.5113 349.627 63.3244 349.327 58.4489ZM344.921 58.7155C344.777 56.2833 342.68 54.4286 340.249 54.573C337.819 54.7174 335.966 56.8164 336.11 59.2485C336.254 61.6807 338.352 63.5354 340.782 63.391C343.212 63.2466 345.066 61.1476 344.921 58.7155Z" stroke="#D3D3CE" stroke-opacity="0.5" stroke-width="1.1" stroke-miterlimit="8"></path><path d="M432.042 309.79L418.825 196.594L588.263 290.931L432.042 309.79Z" fill="#DBD4C4"></path><path d="M418.825 196.594L573.718 111.501L551.541 38.8044L418.825 196.594Z" fill="#ECE9E1"></path><path d="M418.825 196.594L400.547 71.9563L551.541 38.8044L418.825 196.594Z" fill="#D3D3CE"></path><path d="M588.263 290.931L573.718 111.501L663.421 141.152L588.263 290.931Z" fill="#F47958"></path><path d="M645.71 -29.2288C644.797 -44.2274 631.898 -55.6423 616.91 -54.7291C601.923 -53.816 590.516 -40.9066 591.429 -25.908C592.341 -10.9094 605.241 0.505555 620.228 -0.407644C635.216 -1.32084 646.622 -14.2302 645.71 -29.2288ZM638.921 -28.8137C638.23 -40.0626 628.566 -48.6273 617.325 -47.9355C606.084 -47.2437 597.526 -37.5721 598.217 -26.3231C598.909 -15.0742 608.573 -6.50948 619.814 -7.2013C631.054 -7.89311 639.613 -17.5647 638.921 -28.8137ZM632.133 -28.3986C631.676 -35.8979 625.233 -41.5985 617.74 -41.1419C610.246 -40.6853 604.55 -34.2375 605.006 -26.7382C605.462 -19.2389 611.905 -13.5383 619.399 -13.9949C626.893 -14.4515 632.589 -20.8993 632.133 -28.3986ZM625.358 -27.9835C625.123 -31.7331 621.901 -34.5834 618.155 -34.362C614.408 -34.1268 611.56 -30.903 611.781 -27.1533C612.016 -23.4037 615.237 -20.5534 618.984 -20.7748C622.731 -21.01 625.579 -24.2338 625.358 -27.9835Z" stroke="#D3D3CE" stroke-width="1.1" stroke-miterlimit="8"></path></g><defs><clipPath id="clip0_192_300"><rect width="691" height="409" fill="white"></rect></clipPath></defs></svg> 